<?xml version="1.0" standalone="no"?>
<!DOCTYPE svg PUBLIC "-//W3C//DTD SVG 20010904//EN"
 "http://www.w3.org/TR/2001/REC-SVG-20010904/DTD/svg10.dtd">
<svg version="1.0" xmlns="http://www.w3.org/2000/svg"
 width="512.000000pt" height="512.000000pt" viewBox="0 0 512.000000 512.000000"
 preserveAspectRatio="xMidYMid meet">

<g transform="translate(0.000000,512.000000) scale(0.100000,-0.100000)"
fill="#000000" stroke="none">
<path d="M2390 4100 c-505 -67 -967 -396 -1195 -850 -55 -110 -102 -243 -130
-370 -22 -101 -32 -419 -16 -532 50 -348 194 -632 456 -893 243 -242 544 -393
870 -436 113 -15 385 -6 480 15 168 38 352 111 500 198 390 229 672 642 740
1083 23 147 16 428 -14 558 -28 122 -86 286 -133 382 -115 231 -324 459 -557
610 -151 98 -382 189 -556 220 -107 19 -353 27 -445 15z m415 -36 c113 -19
304 -81 415 -134 377 -183 670 -522 794 -920 52 -166 66 -266 66 -459 0 -251
-37 -424 -135 -628 -216 -452 -613 -759 -1118 -864 -143 -30 -380 -30 -524 0
-130 27 -261 70 -365 120 -339 162 -645 490 -774 828 -125 330 -133 708 -24
1044 199 609 843 1061 1470 1033 58 -3 146 -12 195 -20z"/>
<path d="M2380 3824 c-463 -84 -859 -421 -1004 -854 -53 -157 -69 -275 -63
-455 6 -173 21 -254 77 -402 154 -410 517 -714 955 -800 127 -25 338 -23 466
5 261 56 445 154 637 336 207 198 328 416 377 681 25 133 16 383 -18 520 -117
462 -484 824 -965 951 -126 33 -334 41 -462 18z m294 -294 c53 -76 96 -145 96
-152 0 -12 -149 -218 -185 -256 -10 -11 -31 10 -110 109 -53 68 -99 128 -102
135 -5 13 188 304 202 304 2 0 47 -63 99 -140z m-679 -267 c95 -129 304 -413
318 -430 5 -7 7 -13 5 -13 -6 0 -69 83 -244 320 -162 219 -180 245 -168 237 6
-3 46 -55 89 -114z m1238 104 c-20 -34 -365 -497 -370 -497 -3 0 6 15 19 33
14 17 87 118 163 222 165 227 186 255 192 255 2 0 0 -6 -4 -13z m-511 -487
c52 -74 155 -219 227 -322 73 -104 136 -188 140 -188 4 0 70 97 145 215 76
118 141 217 145 219 10 6 181 -243 181 -263 0 -7 -31 -57 -68 -110 -38 -53
-142 -205 -232 -338 l-163 -243 -33 48 c-264 379 -356 513 -412 599 -37 56
-69 102 -72 102 -7 0 -160 -221 -353 -508 -87 -130 -161 -237 -165 -238 -5 -2
-374 538 -454 666 l-18 27 86 132 c48 73 89 132 93 132 3 0 73 -101 155 -225
l148 -224 51 77 c55 84 219 324 360 525 l89 128 27 -38 c15 -21 70 -99 123
-173z m-66 -1027 c39 -54 74 -104 78 -111 9 -15 -131 -231 -150 -232 -10 0
-150 187 -161 215 -4 12 144 225 157 225 3 0 38 -44 76 -97z"/>
</g>
</svg>
